<?xml version="1.0" encoding="UTF-8"?><svg id="Layer_1" xmlns="http://www.w3.org/2000/svg" viewBox="0 0 609.45 609.45"><defs><style>.cls-1{fill:#1a4b7c;}</style></defs><path class="cls-1" d="M312.72,44.01c-143.99,0-260.72,116.73-260.72,260.72s116.73,260.72,260.72,260.72,260.72-116.73,260.72-260.72S456.71,44.01,312.72,44.01Zm0,505.66c-135.28,0-244.95-109.67-244.95-244.95S177.44,59.78,312.72,59.78s244.95,109.67,244.95,244.95-109.67,244.95-244.95,244.95Z"/><polygon class="cls-1" points="425.22 414.78 326.14 162.76 326.14 162.75 312.53 128.09 199.77 415.07 227 415.07 312.53 197.4 397.98 414.78 425.22 414.78"/><g><polygon class="cls-1" points="420.61 230.71 420.6 230.71 420.59 230.69 381.82 272.81 392.13 299.03 411.83 277.63 465.74 414.78 492.98 414.78 420.61 230.71"/><polygon class="cls-1" points="204.66 231.03 132.46 414.78 159.7 414.78 213.44 277.99 232.27 298.45 242.77 272.43 204.66 231.02 204.66 231.03"/><polygon class="cls-1" points="312.47 348.16 280.22 313.12 269.72 339.14 312.47 385.59 354.52 339.9 344.21 313.67 312.47 348.16"/></g></svg>